<svg width="148" height="144" viewBox="0 0 148 144" fill="none" xmlns="http://www.w3.org/2000/svg">
<path d="M76 120C102.51 120 124 98.5097 124 72C124 45.4903 102.51 24 76 24C49.4903 24 28 45.4903 28 72C28 98.5097 49.4903 120 76 120Z" fill="#187CBE"/>
<path fill-rule="evenodd" clip-rule="evenodd" d="M100.136 85.6381L50.9873 85.2481L33.952 95.1882C42.875 110.848 57.9978 120 76.3045 120C85.0402 120 93.2064 117.637 100.158 113.536L100.136 85.6381Z" fill="#0A1428"/>
<path fill-rule="evenodd" clip-rule="evenodd" d="M90.0257 84.8525C90.0257 84.8525 89.7396 85.6228 90.3618 85.531C91.7094 85.3325 91.7922 86.851 91.6303 87.1008C91.6303 87.1008 81.2287 91.4827 79.3325 93.1161C77.4369 94.7497 85.2489 88.1017 85.606 87.9142C85.9627 87.7267 89.2771 86.0764 89.2771 86.0764" fill="white"/>
<path fill-rule="evenodd" clip-rule="evenodd" d="M65.0022 101.632C68.5512 108.234 67.4103 110.052 66.2756 110.515C64.4559 111.233 61.7582 107.996 60.0347 104.139C58.3112 100.281 58.4577 96.9264 59.6044 96.4908C60.7508 96.0547 63.306 97.8773 65.0022 101.96" fill="#187CBE"/>
<path fill-rule="evenodd" clip-rule="evenodd" d="M86.332 86.1691C84.4137 86.9662 80.2134 89.7686 80.2134 89.7686L79.9471 90.0496C83.3406 86.4667 83.7976 86.155 83.3859 86.0368C80.7472 85.8616 81.2453 86.1511 78.2391 88.7071C77.4361 89.5634 75.8501 91.1021 75.2131 91.0297C74.672 91.0323 74.672 91.0323 73.9115 91.0038C74.7162 89.6067 77.6218 86.1435 77.6218 86.1435C77.6218 86.1435 76.6348 85.5739 75.3012 86.2516C71.9293 88.989 71.0187 92.6549 68.6983 91.5802C67.62 91.0813 66.4367 88.2043 65.3973 86.8711C63.8739 84.5566 61.7893 85.972 61.7893 85.972C61.7893 85.972 62.378 86.3547 63.7933 88.6111C64.0794 89.0672 65.0641 91.373 64.2379 93.4585C63.4122 95.5426 63.557 97.5026 63.8561 98.4591C64.587 99.8779 63.6334 100.416 63.6334 100.416C63.6334 100.416 58.0566 104.729 57.8022 105.042C57.5484 105.354 57.592 111.054 57.592 111.054C57.592 111.054 67.6162 107.109 70.2793 103.195C73.9249 97.8368 80.1088 90.6254 90.2612 86.5211C90.0827 85.7105 88.2502 85.3714 86.332 86.1691Z" fill="white"/>
<path fill-rule="evenodd" clip-rule="evenodd" d="M70.2299 91.5931C69.5923 91.6393 69.2344 91.6438 68.7082 91.5804C67.6037 91.1403 67.0292 88.1932 65.3028 86.3642C63.5651 85.1177 61.7998 85.9723 61.7998 85.9723C61.7998 85.9723 62.3885 86.3549 63.8038 88.6113C64.0893 89.0675 65.0746 91.3732 64.2483 93.4585C63.4226 95.5429 63.3904 97.8052 63.6901 98.7622C64.1564 100.394 61.6736 101.303 60.5949 101.787C59.4262 102.262 61.0811 102.087 57.6053 102.892C54.2436 104.552 51.8555 108.592 51.8555 107.015C51.8555 107.015 62.947 104.917 65.0798 101.083C65.9276 99.561 65.6572 97.9024 66.6158 95.9793C68.0258 92.977 70.1322 91.7967 70.2299 91.5931Z" fill="#187CBE"/>
<path fill-rule="evenodd" clip-rule="evenodd" d="M59.8498 102.643C58.0507 98.1127 59.1977 96.7584 59.6041 96.4909C59.0846 96.7575 46.7539 104.658 42.8319 106.735C46.7647 110.909 53.9423 115.287 57.9053 116.529L66.1026 110.57C66.1026 110.57 63.0426 110.977 59.8498 102.643Z" fill="#FF3C1E"/>
<path fill-rule="evenodd" clip-rule="evenodd" d="M45.0089 82.4437V83.0322H46.7443C46.7443 83.0322 49.7528 85.6786 53.3399 85.9723C56.5301 86.2344 95.0926 86.2344 98.2834 85.9723C101.87 85.6786 104.879 83.0322 104.879 83.0322H106.615V82.4437H45.0089Z" fill="#187CBE"/>
<path fill-rule="evenodd" clip-rule="evenodd" d="M76.1047 31.502C62.8207 31.502 52.0516 40.1018 52.0516 50.7105V81.3625H100.159V50.7102C100.158 40.1018 89.3892 31.502 76.1047 31.502Z" fill="white"/>
<path d="M75.9345 31.5019C77.1594 31.5019 78.1525 30.5704 78.1525 29.4212C78.1525 28.272 77.1594 27.3404 75.9345 27.3404C74.7095 27.3404 73.7164 28.272 73.7164 29.4212C73.7164 30.5704 74.7095 31.5019 75.9345 31.5019Z" fill="#187CBE"/>
<path fill-rule="evenodd" clip-rule="evenodd" d="M75.9529 33.9153C61.7171 33.9153 54.1091 42.0629 54.1091 52.2881L54.3964 81.0678L98.0409 66.4777L98.1054 52.2881C98.1054 42.0629 90.1899 33.9153 75.9529 33.9153Z" fill="#187CBE"/>
<path d="M76.8563 29.7642C77.1773 29.7642 77.4375 29.5025 77.4375 29.1796C77.4375 28.8568 77.1773 28.5951 76.8563 28.5951C76.5354 28.5951 76.2751 28.8568 76.2751 29.1796C76.2751 29.5025 76.5354 29.7642 76.8563 29.7642Z" fill="white"/>
<path fill-rule="evenodd" clip-rule="evenodd" d="M81.0325 69.8232C81.0325 70.3973 80.4789 70.8625 79.7957 70.8625H76.0103C75.3265 70.8625 74.7729 70.3973 74.7729 69.8232C74.7729 69.2491 75.3265 68.784 76.0103 68.784H79.7957C80.4786 68.784 81.0325 69.2491 81.0325 69.8232Z" fill="#187CBE"/>
<path fill-rule="evenodd" clip-rule="evenodd" d="M81.3237 66.8882C81.3237 67.4623 80.7702 67.9275 80.0864 67.9275H76.3016C75.6178 67.9275 75.0642 67.4623 75.0642 66.8882C75.0642 66.3138 75.6178 65.8487 76.3016 65.8487H80.0864C80.7699 65.8487 81.3237 66.3138 81.3237 66.8882Z" fill="#187CBE"/>
<path fill-rule="evenodd" clip-rule="evenodd" d="M78.8835 43.2167H73.4C70.6647 43.2167 68.4479 45.0789 68.4479 47.3762V48.146C68.4479 50.4433 70.6647 52.3052 73.4 52.3052H74.8531V71.0264C74.8531 71.5954 75.4022 72.0563 76.0797 72.0563C76.7565 72.0563 77.3057 71.5951 77.3057 71.0264V52.3052H78.8838C81.6184 52.3052 83.8353 50.4433 83.8353 48.146V47.3762C83.835 45.0789 81.6182 43.2167 78.8835 43.2167ZM78.666 50.2862H73.6168C71.8905 50.2862 70.4909 49.1103 70.4909 47.6603C70.4909 46.2102 71.8905 45.035 73.6168 45.035H78.666C80.3924 45.035 81.7914 46.2102 81.7914 47.6603C81.7914 49.1103 80.3924 50.2862 78.666 50.2862Z" fill="#FFD320"/>
<path fill-rule="evenodd" clip-rule="evenodd" d="M79.0379 50.2234H79.6016C81.328 50.2234 82.7264 49.0478 82.7264 47.5978C82.7264 46.1477 81.3277 44.9719 79.6016 44.9719H74.5519C74.3248 44.9719 74.1033 44.9936 73.8893 45.0328H78.3747C80.1014 45.0328 81.5007 46.208 81.5007 47.6581C81.5007 48.9175 80.4451 49.9677 79.0379 50.2234Z" fill="white"/>
<path fill-rule="evenodd" clip-rule="evenodd" d="M75.7884 70.9644V52.2436H74.3347C71.6001 52.2436 69.3832 50.381 69.3832 48.0838V47.3143C69.3832 45.2493 71.1759 43.5402 73.525 43.2147H73.1081C70.374 43.2147 68.1566 45.0772 68.1566 47.3742V48.144C68.1566 50.4416 70.374 52.3036 73.1081 52.3036H74.5624V71.0244C74.5624 71.5934 75.111 72.0544 75.7884 72.0544C76.0399 72.0544 76.2733 71.9902 76.4681 71.8815C76.0666 71.7123 75.7884 71.3673 75.7884 70.9644Z" fill="white"/>
<path fill-rule="evenodd" clip-rule="evenodd" d="M80.5712 66.5355C80.5712 66.7979 80.3186 67.0107 80.0069 67.0107H78.6201C78.3078 67.0107 78.0552 66.7979 78.0552 66.5355C78.0552 66.2733 78.3078 66.0607 78.6201 66.0607H80.0069C80.3186 66.061 80.5712 66.2736 80.5712 66.5355Z" fill="white"/>
<path fill-rule="evenodd" clip-rule="evenodd" d="M80.5166 69.5842C80.5166 69.8466 80.2639 70.0589 79.9511 70.0589H78.5649C78.2532 70.0589 78 69.8466 78 69.5842C78 69.3218 78.2532 69.1092 78.5649 69.1092H79.9511C80.2639 69.1092 80.5166 69.3218 80.5166 69.5842Z" fill="white"/>
<path fill-rule="evenodd" clip-rule="evenodd" d="M75.0421 45.6863C75.0541 45.7516 75.0705 45.8155 75.0846 45.8798C75.1144 45.8724 75.145 45.8649 75.1748 45.8579L75.0421 45.6863Z" fill="#157DBD"/>
<path fill-rule="evenodd" clip-rule="evenodd" d="M73.7754 47.8864C73.7874 47.951 73.8037 48.0132 73.8172 48.0767C73.847 48.069 73.8768 48.0622 73.9059 48.0552L73.7754 47.8864Z" fill="#157DBD"/>
<path fill-rule="evenodd" clip-rule="evenodd" d="M91.5025 60.2164C91.6287 68.5636 90.8859 77.559 90.8859 77.559L95.8129 79.4469C95.8129 79.4469 95.6937 66.5595 95.5955 60.2164H91.5025Z" fill="white"/>
<path fill-rule="evenodd" clip-rule="evenodd" d="M90.7662 50.764C91.1688 52.923 91.3782 55.6694 91.4657 58.576H95.5676C95.5671 58.5346 95.5665 58.4918 95.5653 58.4518C95.4688 53.458 95.1513 43.2502 85.2329 40.2043C86.8407 40.996 89.3954 43.4121 90.7662 50.764Z" fill="white"/>
<path fill-rule="evenodd" clip-rule="evenodd" d="M106.065 82.4437H45.8171C45.4423 82.4437 45.1379 82.1489 45.1379 81.7862C45.1379 81.423 45.4423 81.1288 45.8171 81.1288H106.065C106.44 81.1288 106.744 81.423 106.744 81.7862C106.744 82.1492 106.44 82.4437 106.065 82.4437Z" fill="#FFCC00"/>
<path fill-rule="evenodd" clip-rule="evenodd" d="M90.0257 86.1283L87.7548 87.4587C87.7548 87.4587 89.7393 86.5205 90.8325 86.5746C91.9259 86.6286 91.6861 87.5941 91.6861 87.5941C91.6861 87.5941 92.4504 86.4597 92.1698 86.1336C91.7212 86.1066 90.0257 86.1283 90.0257 86.1283Z" fill="#0A1428"/>
</svg>
