<svg width="148" height="144" viewBox="0 0 148 144" fill="none" xmlns="http://www.w3.org/2000/svg">
<path d="M76 120C102.51 120 124 98.5097 124 72C124 45.4903 102.51 24 76 24C49.4903 24 28 45.4903 28 72C28 98.5097 49.4903 120 76 120Z" fill="#187CBE"/>
<mask id="mask0" mask-type="alpha" maskUnits="userSpaceOnUse" x="28" y="24" width="96" height="96">
<path d="M76 120C102.51 120 124 98.5097 124 72C124 45.4903 102.51 24 76 24C49.4903 24 28 45.4903 28 72C28 98.5097 49.4903 120 76 120Z" fill="white"/>
</mask>
<g mask="url(#mask0)">
<g filter="url(#filter0_d)">
<rect x="-225.091" y="36" width="341.455" height="209.455" fill="white"/>
<rect x="-712.727" y="36" width="829" height="60.7273" fill="#D6DBDD"/>
<path d="M97.4328 46.2039C97.2198 45.9908 97.2198 45.6455 97.4328 45.4325C97.6458 45.2195 97.9912 45.2195 98.2042 45.4325L105.295 52.5234C105.508 52.7364 105.508 53.0818 105.295 53.2948C105.082 53.5078 104.737 53.5078 104.524 53.2948L97.4328 46.2039Z" fill="black"/>
<path d="M105.295 46.2039C105.508 45.9908 105.508 45.6455 105.295 45.4325C105.082 45.2195 104.737 45.2195 104.524 45.4325L97.4328 52.5234C97.2198 52.7364 97.2198 53.0818 97.4328 53.2948C97.6458 53.5078 97.9912 53.5078 98.2042 53.2948L105.295 46.2039Z" fill="black"/>
<path fill-rule="evenodd" clip-rule="evenodd" d="M37.8185 49.6363C37.8185 49.3351 38.0627 49.0909 38.364 49.0909H47.0912C47.3925 49.0909 47.6367 49.3351 47.6367 49.6363V49.6363C47.6367 49.9376 47.3925 50.1818 47.0912 50.1818H38.364C38.0627 50.1818 37.8185 49.9376 37.8185 49.6363V49.6363Z" fill="black"/>
<path fill-rule="evenodd" clip-rule="evenodd" d="M76.5458 44.7273L76.5409 44.7273H67.8185C67.7432 44.7273 67.6715 44.7426 67.6062 44.7702C67.4469 44.8376 67.3262 44.9785 67.2868 45.1504C67.2819 45.1721 67.2782 45.1944 67.2759 45.217C67.274 45.2353 67.2731 45.2539 67.2731 45.2728V52.9091C67.2731 53.2104 67.5173 53.4546 67.8185 53.4546C67.8202 53.4546 67.8218 53.4546 67.8235 53.4546H76.5458C76.8471 53.4546 77.0913 53.2104 77.0913 52.9091V45.2727C77.0913 44.9715 76.8471 44.7273 76.5458 44.7273ZM76.0004 52.3637V45.8182H68.364V52.3637H76.0004Z" fill="black"/>
<rect x="-712.727" y="62.1818" width="829" height="34.5454" fill="#F9F9F9"/>
<rect opacity="0.1" x="-712.727" y="97.0909" width="829" height="0.727266" fill="black"/>
<path d="M17.7274 67.0909H33.2481C34.4767 67.0909 35.6129 67.7435 36.232 68.8048L42.1229 78.9035C42.3871 79.3564 42.3871 79.9164 42.1229 80.3693L36.232 90.4679C35.6129 91.5292 34.4767 92.1818 33.2481 92.1818H17.7274C15.8195 92.1818 14.2728 90.6352 14.2728 88.7273V70.5455C14.2728 68.6376 15.8195 67.0909 17.7274 67.0909Z" fill="white" stroke="#CCCCCC" stroke-width="1.09091"/>
<path fill-rule="evenodd" clip-rule="evenodd" d="M-598.182 67.6364L34.5455 67.6364V91.6364H-598.182V67.6364Z" fill="white"/>
<path d="M59 73.5C59 73.2239 59.2239 73 59.5 73H63.5C63.7761 73 64 73.2239 64 73.5C64 73.7761 63.7761 74 63.5 74H59.5C59.2239 74 59 73.7761 59 73.5Z" fill="black"/>
<path fill-rule="evenodd" clip-rule="evenodd" d="M61.5 90L64 88V86H74C75.1046 86 76 85.1046 76 84V76C76 74.8954 75.1046 74 74 74H67.6364L67.8018 72.1811C67.9082 71.0098 66.986 70 65.81 70H57.1901C56.014 70 55.0918 71.0098 55.1983 72.1811L55.8347 79.1811C55.9283 80.2112 56.7921 81 57.8265 81H59V88L61.5 90ZM60 87.5194V80H57.8265C57.3093 80 56.8774 79.6056 56.8306 79.0905L56.1942 72.0905C56.141 71.5049 56.6021 71 57.1901 71H65.81C66.398 71 66.8591 71.5049 66.8059 72.0905L66.1695 79.0905C66.1227 79.6056 65.6908 80 65.1736 80H63V87.5194L61.5 88.7194L60 87.5194ZM67.1819 79L67.1654 79.1811C67.0717 80.2112 66.208 81 65.1736 81H64V85H74C74.5523 85 75 84.5523 75 84V79H67.1819ZM67.3637 77H75V76C75 75.4477 74.5523 75 74 75H67.5455L67.3637 77Z" fill="black"/>
<path d="M92.3636 79.6364L97.2727 84.5454L102.182 79.6364" stroke="black" stroke-width="1.09091" stroke-linecap="round" stroke-linejoin="round"/>
<rect x="96.7273" y="73.0909" width="1.09091" height="10.9091" rx="0.545455" fill="black"/>
<rect x="91.2727" y="85.0909" width="12" height="1.09091" rx="0.545455" fill="black"/>
</g>
</g>
<path d="M123.455 72C123.455 98.2084 102.208 119.455 76 119.455C49.7916 119.455 28.5455 98.2084 28.5455 72C28.5455 45.7916 49.7916 24.5455 76 24.5455C102.208 24.5455 123.455 45.7916 123.455 72Z" stroke="black" stroke-opacity="0.05" stroke-width="1.09091"/>
<mask id="mask1" mask-type="alpha" maskUnits="userSpaceOnUse" x="28" y="24" width="96" height="96">
<path d="M76 120C102.51 120 124 98.5097 124 72C124 45.4903 102.51 24 76 24C49.4903 24 28 45.4903 28 72C28 98.5097 49.4903 120 76 120Z" fill="white"/>
<path d="M123.455 72C123.455 98.2084 102.208 119.455 76 119.455C49.7916 119.455 28.5455 98.2084 28.5455 72C28.5455 45.7916 49.7916 24.5455 76 24.5455C102.208 24.5455 123.455 45.7916 123.455 72Z" stroke="white" stroke-width="1.09091"/>
</mask>
<g mask="url(#mask1)">
</g>
<defs>
<filter id="filter0_d" x="-723.636" y="27.2727" width="850.909" height="302.182" filterUnits="userSpaceOnUse" color-interpolation-filters="sRGB">
<feFlood flood-opacity="0" result="BackgroundImageFix"/>
<feColorMatrix in="SourceAlpha" type="matrix" values="0 0 0 0 0 0 0 0 0 0 0 0 0 0 0 0 0 0 127 0"/>
<feOffset dy="2.18182"/>
<feGaussianBlur stdDeviation="5.45455"/>
<feColorMatrix type="matrix" values="0 0 0 0 0.942124 0 0 0 0 0.427755 0 0 0 0 0.427755 0 0 0 0.5 0"/>
<feBlend mode="normal" in2="BackgroundImageFix" result="effect1_dropShadow"/>
<feBlend mode="normal" in="SourceGraphic" in2="effect1_dropShadow" result="shape"/>
</filter>
</defs>
</svg>
